<svg width="72" height="72" viewBox="0 0 72 72" fill="none" xmlns="http://www.w3.org/2000/svg">
<g clip-path="url(#clip0_23_5)">
<path d="M35.9 68.55C53.93 68.55 68.54 53.94 68.54 35.91C68.54 17.88 53.92 3.26999 35.9 3.26999C17.88 3.26999 3.26 17.88 3.26 35.91C3.26 53.94 17.87 68.55 35.9 68.55Z" fill="#1993DF"/>
<path d="M59.57 8.95C57.92 7.49 56.13 6.19 54.22 5.05C48.86 1.84 42.58 0 35.89 0C16.1 0 0 16.11 0 35.9C0 42.6 1.84 48.86 5.04 54.23C6.18 56.13 7.48 57.93 8.94 59.58C15.52 67.07 25.17 71.8 35.9 71.8C55.69 71.8 71.8 55.69 71.8 35.9C71.8 25.17 67.06 15.52 59.58 8.94L59.57 8.95ZM35.89 65.28C27.65 65.28 20.17 61.86 14.85 56.37C13.3 54.79 11.94 53.05 10.8 51.17C8.09 46.71 6.52 41.49 6.52 35.91C6.52 19.72 19.7 6.54 35.89 6.54C41.48 6.54 46.7 8.11 51.16 10.82C53.04 11.98 54.78 13.33 56.35 14.87C61.85 20.19 65.26 27.67 65.26 35.91C65.26 52.1 52.09 65.28 35.89 65.28Z" fill="white"/>
<path fill-rule="evenodd" clip-rule="evenodd" d="M39.16 19.59C39.16 17.79 37.7 16.33 35.9 16.33C34.1 16.33 32.64 17.79 32.64 19.59V32.65H19.58C17.78 32.65 16.32 34.11 16.32 35.91C16.32 37.71 17.78 39.17 19.58 39.17H32.64V52.23C32.64 54.03 34.1 55.49 35.9 55.49C37.7 55.49 39.16 54.03 39.16 52.23V39.17H52.22C54.02 39.17 55.48 37.71 55.48 35.91C55.48 34.11 54.02 32.65 52.22 32.65H39.16V19.59Z" fill="white"/>
</g>
<defs>
<clipPath id="clip0_23_5">
<rect width="71.8" height="71.81" fill="white"/>
</clipPath>
</defs>
</svg>
