<svg width="22" height="23" viewBox="0 0 22 23" fill="none" xmlns="http://www.w3.org/2000/svg">
<g clip-path="url(#clip0_31_8)">
<path d="M16.3714 20.3727L16.6741 19.4263C16.4008 19.3311 16.101 19.3679 15.86 19.5308L16.3714 20.3758V20.3727ZM19.487 17.1186L18.6787 16.584C18.5259 16.839 18.4876 17.1524 18.5788 17.4351L19.487 17.1186ZM21.0418 21.9983L20.7391 22.9478C21.083 23.0676 21.4621 22.9723 21.7178 22.705C21.9735 22.4377 22.0647 22.0413 21.95 21.6818L21.0418 21.9983ZM10.9985 23C13.1618 23 15.181 22.3455 16.8828 21.2178L15.857 19.5277C14.4521 20.4588 12.7856 20.9996 10.9956 20.9996V23H10.9985ZM0 11.4985C0 17.85 4.92612 22.9969 10.9985 22.9969V20.9965C5.9813 20.9965 1.91049 16.7438 1.91049 11.4954H0V11.4985ZM10.9985 0C4.92612 0 0 5.15003 0 11.4985H1.91343C1.91343 6.25317 5.9813 1.99733 11.0015 1.99733V0H10.9985ZM22 11.4985C22 5.15003 17.0739 0 10.9985 0V2.0004C16.0158 2.0004 20.0866 6.25317 20.0866 11.5015H22V11.4985ZM20.2923 17.6533C21.371 15.8741 21.9971 13.7601 21.9971 11.5015H20.0836C20.0836 13.3729 19.5663 15.1152 18.6758 16.584L20.2923 17.6564V17.6533ZM18.5788 17.4321L20.1365 22.3148L21.95 21.6818L20.3923 16.7991L18.5788 17.4321ZM21.3446 21.0488L16.6741 19.4232L16.0687 21.3192L20.7391 22.9478L21.3446 21.0488Z" fill="black"/>
</g>
<defs>
<clipPath id="clip0_31_8">
<rect width="22" height="23" fill="white"/>
</clipPath>
</defs>
</svg>
