<svg width="111" height="29" viewBox="0 0 111 29" fill="none" xmlns="http://www.w3.org/2000/svg">
<g clip-path="url(#clip0_9_5)">
<path fill-rule="evenodd" clip-rule="evenodd" d="M84.4686 8.69334C83.8143 8.71663 82.2805 9.11001 82.0038 13.0482C81.7281 16.9855 82.859 18.0051 83.8152 18.1208C84.7705 18.2364 86.4558 16.8241 86.5558 12.6306C86.6567 8.43884 84.4695 8.69334 84.4695 8.69334H84.4686ZM63.7435 20.802C59.9636 23.8171 59.6374 25.9703 59.6374 25.9703C59.6374 25.9703 59.2645 27.7362 61.0843 27.8225C63.2715 28.027 63.6389 25.5752 63.6977 23.4297C63.7267 22.4161 63.7445 20.8028 63.7445 20.8028L63.7435 20.802ZM61.504 8.57083C60.8404 8.59413 59.171 9.13072 58.7943 12.9429C58.5139 16.932 59.6617 17.9655 60.6319 18.0828C61.6022 18.2001 63.3126 16.7681 63.4136 12.5211C63.5164 8.27321 61.504 8.57083 61.504 8.57083ZM48.1276 8.55358C47.4742 8.57687 45.9394 8.97026 45.6637 12.9084C45.387 16.8457 46.518 17.8654 47.4742 17.981C48.4295 18.0966 50.1138 16.6844 50.2147 12.4917C50.3166 8.29823 48.1285 8.55358 48.1285 8.55358H48.1276ZM111 15.2506C111 19.7236 108.064 19.652 108.064 19.652C105.27 19.7435 104.556 17.0182 104.38 14.249C104.247 12.1656 104.38 9.84761 104.38 9.84761C104.38 9.84761 104.361 9.74063 104.283 9.84761C103.349 11.4134 102.714 13.7883 102.403 15.6267C102.177 16.9604 102.153 18.0776 102.153 18.0776C102.153 18.0776 102.192 18.3287 101.961 18.4719C100.445 19.1154 99.4667 18.2027 99.1209 17.1839C98.661 16.2177 98.3918 10.4032 98.3918 10.0995C98.3918 9.79585 98.1236 10.0279 98.1236 10.0279C96.0317 13.2664 96.013 18.025 96.013 18.9912C96.013 19.9574 94.2287 19.6537 94.2287 19.6537C92.7126 19.5459 92.7696 18.8661 92.7696 18.8661L92.7014 17.711C92.1752 18.6082 91.1947 19.7728 89.6898 19.6831C87.4101 19.5468 86.9689 17.3685 86.9343 17.001C86.9343 17.001 85.8005 19.7141 82.6786 19.6831C80.5578 19.6529 79.7072 17.629 79.7072 17.629C79.7072 17.629 78.8557 19.7443 76.7695 19.6675C74.6823 19.5908 72.9625 17.3685 73.0961 14.4871C73.2298 11.6058 73.714 10.1651 73.714 10.1651C73.714 10.1651 73.8813 9.87349 73.5971 9.85882C73.3139 9.84329 71.5109 9.88988 71.5109 9.88988C71.5109 9.88988 70.493 13.6607 66.1859 18.3494C66.1859 18.3494 66.2205 19.8151 66.2186 21.4455C66.2168 24.5279 65.8018 28.6636 61.2778 29.0018C57.3633 28.7576 57.5848 25.972 57.5848 25.972C57.4914 25.1542 58.0512 23.6462 60.3842 21.6215C62.7173 19.5977 63.651 18.8221 63.651 18.8221L63.5585 17.5298C62.0648 19.8125 59.7786 19.6831 59.7786 19.6831C59.7786 19.6831 58.0129 20.0143 56.5277 17.5893C56.0912 18.4201 55.0985 19.8366 53.4759 19.6719C51.1952 19.4398 50.7428 17.34 50.7092 16.9691C50.7092 16.9691 49.5698 19.7021 46.4348 19.6719C44.3056 19.6408 43.4503 17.6031 43.4503 17.6031C43.2036 17.1899 43.0138 16.5636 42.9138 16.1944C42.8886 16.2694 42.8596 16.3514 42.8194 16.4471C42.3362 17.5876 41.1407 19.5761 39.3059 19.6011C35.9354 19.6011 35.7933 14.7761 35.7933 14.7761C34.8184 16.9164 32.9107 19.6581 29.357 19.6391C25.8032 19.6192 25.377 18.4374 25.377 18.2683C25.377 18.0992 25.3163 17.9111 25.7219 17.3668C26.1285 16.8224 26.4734 16.5972 26.7576 16.5972C27.0417 16.5972 27.5502 16.9915 27.5502 16.9915C27.5502 16.9915 28.3222 17.686 29.1943 17.686C30.3113 17.6489 30.5543 16.8224 30.6366 15.9778C30.7179 15.1333 30.0673 14.2318 29.1747 13.4804C28.2811 12.7298 27.5904 12.1665 27.5904 12.1665C26.3117 14.1567 25.3368 15.5085 24.6265 16.6723C22.9001 19.2629 21.1877 19.6641 20.525 19.5821C19.6109 19.47 18.7379 18.6056 18.6977 16.09C18.6565 13.5744 18.9005 9.27479 18.9005 9.04876C18.9005 8.82274 18.678 8.93661 18.678 8.93661C15.2664 12.2787 14.2513 19.1499 14.2513 19.2819C14.2513 19.4139 13.9466 19.5632 13.6419 19.5632C13.3372 19.5632 13.7438 19.5442 12.5249 19.5071C11.307 19.47 11.3883 17.3297 11.3883 17.3297L11.4697 7.09651C11.4893 6.7592 11.8351 6.60909 12.9923 6.89033C14.1504 7.17156 14.1092 7.52871 14.1092 7.52871L14.0681 13.4623C17.0526 5.33232 19.3071 6.60909 20.6671 7.2285C22.028 7.84791 21.8448 8.74941 21.8448 8.74941C21.8448 8.74941 21.7027 13.2181 21.641 14.796C21.5803 16.373 21.8233 16.9924 22.2093 17.0493C23.1637 17.2555 26.5547 11.2098 26.5547 11.2098C25.0527 9.70785 25.8724 7.87465 27.0417 7.07925C27.8362 6.53835 28.8083 6.47882 28.8083 6.47882C28.8083 6.47882 30.3309 6.40377 30.2907 7.58651C30.3309 8.88226 28.7681 10.4593 28.7681 10.4593C31.7937 12.4495 33.2154 13.5011 33.4388 15.0401C33.5388 15.7786 33.3575 16.2418 33.3575 16.2418C35.5101 14.5147 35.6718 12.5806 35.6718 12.5806L35.7129 6.12167L32.5256 6.08458C32.5256 6.08458 32.2816 6.0656 32.2414 5.52125C32.2414 4.48861 32.8303 4.05641 32.8303 4.05641L35.8755 4.09437C35.8755 4.09437 35.9774 1.18453 35.997 0.714368C36.098 0.0388858 36.5653 -0.0551468 37.9057 0.264046C39.2451 0.58324 39.2451 0.864475 39.2451 0.864475L39.0825 4.26345C39.0825 4.26345 42.4334 4.41356 42.8802 4.45152C43.3269 4.48947 43.469 4.60162 43.3671 5.29608C43.2653 5.99141 42.8194 6.16049 42.8194 6.16049L39.0423 6.23555L38.7787 13.7271C38.7787 14.8909 38.8395 17.6325 40.0172 17.6135C41.6623 17.6885 42.6371 14.2904 42.6371 14.2904L42.6549 14.2637C42.6362 13.734 42.6484 13.0982 42.7297 12.3856C43.0409 9.65523 44.3598 6.45553 47.3891 6.45553C47.3891 6.45553 49.2333 6.39428 50.2063 8.09204L50.24 7.47436C50.24 7.47436 50.1727 6.73332 51.4476 6.91879C52.7216 7.10427 53.1572 7.56753 53.1235 7.93762C53.1235 7.93762 52.8889 12.6936 53.0235 15.5051C53.1936 17.1373 53.4983 18.1026 54.3975 18.0371C55.1733 17.9327 55.7238 16.9535 56.0575 16.1202C54.9312 7.47177 60.059 6.42361 60.059 6.42361C60.059 6.42361 62.3284 6.27006 63.3631 8.01785L63.3968 7.43554C63.3968 7.43554 63.2968 6.66948 64.4997 6.88429C64.4997 6.88429 64.9998 6.94554 65.5344 7.12929C66.0681 7.31304 66.2355 7.43554 66.2355 7.89535C66.2355 8.35516 66.1354 16.4359 66.1354 16.4359C66.1354 16.4359 68.8068 13.1258 69.4742 9.90713C69.4742 9.90713 68.5395 9.26357 68.6068 8.34395C68.6731 7.42433 69.1732 6.32095 70.6425 6.32095C72.1119 6.32095 72.1783 7.51577 71.9446 8.34395C71.9446 8.34395 73.1793 8.19039 74.2477 7.94539C75.316 7.70039 76.7517 7.54683 76.8517 9.07982C76.9181 9.63194 76.6508 10.0607 76.6508 10.0607C76.6508 10.0607 75.8161 13.4631 75.9498 14.8425C76.0834 16.222 76.4853 18.3062 77.6528 18.0604C78.8212 17.8154 79.2221 16.2832 79.2221 16.2832C79.2221 16.2832 78.752 14.5096 78.9875 12.4512C79.2978 9.7415 80.612 6.56596 83.6283 6.56596C83.6283 6.56596 85.465 6.50471 86.4333 8.19039L86.466 7.57702C86.466 7.57702 86.3997 6.84115 87.669 7.0249C88.9374 7.20952 89.372 7.66847 89.3384 8.03597C89.3384 8.03597 89.1047 12.7566 89.2383 15.5465C89.4075 17.1666 89.7104 18.1251 90.6077 18.0595C91.4713 18.0362 92.2004 16.6878 92.6509 15.5888L92.6453 15.1824L92.6743 7.21124C92.7463 6.75488 93.1931 6.72814 93.1931 6.72814L94.2287 6.87566C95.6831 7.07666 95.4812 7.58651 95.4812 7.58651V12.0949C96.5598 9.03582 97.0786 7.86775 97.5684 7.08961C97.9843 6.4262 99.3518 6.86099 99.3518 6.86099C99.3518 6.86099 100.835 7.22332 100.864 8.48457C100.821 10.5645 101.137 13.9531 101.137 13.9531C101.143 14.0066 101.193 14.0239 101.221 13.9997C101.244 13.9816 101.245 13.9255 101.245 13.9255C101.54 11.7455 102.883 8.16623 103.421 7.23626C103.959 6.30629 105.512 6.96797 105.512 6.96797C107.373 7.55804 107.125 8.57774 107.125 8.57774C106.569 17.3271 107.739 17.899 108.43 17.9534C109.121 18.0069 109.486 17.1839 109.639 16.7896C109.793 16.3962 109.985 15.5379 110.1 15.198C110.214 14.8581 110.579 14.84 110.579 14.84C110.579 14.84 111.001 14.9297 111.001 15.2515L111 15.2506ZM2.92745 1.96095C5.02585 0.0604527 6.32601 0.00437839 6.32601 0.00437839C6.32601 0.00437839 6.73541 -0.0525588 7.72806 0.269222C8.72071 0.591004 8.76183 1.08273 8.76183 1.08273V14.9909C8.88989 18.8842 7.84116 20.381 6.58119 21.4205C5.86614 21.9571 5.29037 22.0253 5.21933 22.0253C5.04548 22.0253 4.91275 22.0063 4.88097 21.7889C4.85106 21.5715 5.06511 21.0038 5.06511 21.0038C5.69977 19.5192 5.64836 16.9475 5.64836 16.9475L5.71005 1.96095C5.71005 1.96095 5.76146 1.68661 5.50535 1.77202C3.0284 3.73894 2.72089 6.50902 2.63863 7.85222C2.59751 9.86572 3.54435 10.9061 3.54435 10.9061C3.54435 10.9061 3.79018 11.1045 3.75933 11.3884C3.75933 11.7714 3.37517 11.7429 3.37517 11.7429C2.44328 11.6627 0.95898 10.6887 0.427138 9.51634C-0.0112356 8.64934 -1.91949e-05 7.71419 -1.91949e-05 7.71419C0.0308258 6.53662 0.829057 3.86144 2.92745 1.96095Z" fill="black"/>
</g>
<defs>
<clipPath id="clip0_9_5">
<rect width="111" height="29" fill="white"/>
</clipPath>
</defs>
</svg>
