<svg width="23" height="23" viewBox="0 0 23 23" fill="none" xmlns="http://www.w3.org/2000/svg">
<g clip-path="url(#clip0_11_17)">
<path fill-rule="evenodd" clip-rule="evenodd" d="M11.4592 0H11.541C13.2931 0 14.6677 0 15.7686 0.0849289C16.8915 0.173003 17.8163 0.352298 18.6593 0.758069C20.2258 1.51299 21.4871 2.77434 22.2389 4.33766C22.6447 5.18066 22.824 6.10544 22.9121 7.22839C22.997 8.33247 22.997 9.70391 22.997 11.4591V11.5409C22.997 13.2929 22.997 14.6675 22.9121 15.7685C22.824 16.8914 22.6447 17.8162 22.2389 18.6592C21.484 20.2225 20.2226 21.487 18.6593 22.2388C17.8195 22.6446 16.8915 22.8239 15.7686 22.9119C14.6645 22.9969 13.2931 22.9969 11.541 22.9969H11.4592C9.70719 22.9969 8.3326 22.9969 7.23167 22.9119C6.10872 22.8239 5.18394 22.6446 4.34094 22.2388C2.77448 21.4839 1.51313 20.2225 0.76135 18.6592C0.355578 17.8162 0.176284 16.8914 0.0882095 15.7685C0.00328064 14.6644 0.00328064 13.2929 0.00328064 11.5409V11.4591C0.00328064 9.70706 0.00328064 8.33247 0.0882095 7.23154C0.176284 6.10859 0.355578 5.18381 0.76135 4.34081C1.51627 2.77749 2.77762 1.51299 4.34094 0.761214C5.1808 0.355443 6.10872 0.176149 7.23167 0.0880744C8.33575 0.00314551 9.70719 0.00314551 11.4592 0.00314551V0ZM7.37951 1.9974C6.3698 2.07604 5.71239 2.22702 5.17136 2.4881C3.99808 3.05429 3.05128 4.00109 2.48509 5.17437C2.22401 5.71225 2.07303 6.36967 1.99439 7.38252C1.91575 8.40167 1.91261 9.70077 1.91261 11.5031C1.91261 13.3055 1.91261 14.6046 1.99439 15.6238C2.07303 16.6335 2.22401 17.294 2.48509 17.8319C3.05128 19.0052 3.99808 19.952 5.17136 20.5182C5.70924 20.7761 6.36666 20.9303 7.37951 21.0089C8.39866 21.0875 9.69776 21.0875 11.5001 21.0875C13.3025 21.0875 14.6016 21.0875 15.6208 21.0089C16.6305 20.9303 17.2879 20.7793 17.8289 20.5182C19.0022 19.952 19.949 19.0052 20.5152 17.8319C20.7763 17.294 20.9272 16.6366 21.0059 15.6238C21.0845 14.6046 21.0877 13.3055 21.0877 11.5031C21.0877 9.70077 21.0877 8.40167 21.0059 7.38252C20.9272 6.37281 20.7763 5.71225 20.5152 5.17437C19.949 4.00109 19.0022 3.05429 17.8289 2.4881C17.291 2.23017 16.6336 2.07604 15.6208 1.9974C14.6016 1.91876 13.3025 1.91876 11.5001 1.91876C9.69776 1.91876 8.39866 1.91876 7.37951 1.9974ZM11.5001 5.75C12.0286 5.75 12.4595 6.17779 12.4595 6.70938V10.5438H16.2939C16.8223 10.5438 17.2533 10.9716 17.2533 11.5031C17.2533 12.0347 16.8255 12.4625 16.2939 12.4625H12.4595V16.2969C12.4595 16.8254 12.0317 17.2563 11.5001 17.2563C10.9685 17.2563 10.5408 16.8285 10.5408 16.2969V12.4625H6.70637C6.17793 12.4625 5.74699 12.0347 5.74699 11.5031C5.74699 10.9716 6.17478 10.5438 6.70637 10.5438H10.5408V6.70938C10.5408 6.18094 10.9685 5.75 11.5001 5.75Z" fill="black"/>
</g>
<defs>
<clipPath id="clip0_11_17">
<rect width="23" height="23" fill="white"/>
</clipPath>
</defs>
</svg>
