<svg width="14" height="3" viewBox="0 0 14 3" fill="none" xmlns="http://www.w3.org/2000/svg">
<g clip-path="url(#clip0_32_15)">
<path fill-rule="evenodd" clip-rule="evenodd" d="M2.79943 1.5C2.79943 2.32684 2.17128 3 1.39971 3C0.62815 3 0 2.32992 0 1.5C0 0.670082 0.62815 0 1.39971 0C2.17128 0 2.79943 0.673156 2.79943 1.5ZM7.00143 3C7.773 3 8.40115 2.32684 8.40115 1.5C8.40115 0.673156 7.773 0 7.00143 0C6.22987 0 5.60172 0.673156 5.60172 1.5C5.60172 2.32684 6.22987 3 7.00143 3ZM12.6003 3C13.3718 3 14 2.32684 14 1.5C14 0.673156 13.3718 0 12.6003 0C11.8287 0 11.2006 0.673156 11.2006 1.5C11.2006 2.32684 11.8287 3 12.6003 3Z" fill="black"/>
</g>
<defs>
<clipPath id="clip0_32_15">
<rect width="14" height="3" fill="white"/>
</clipPath>
</defs>
</svg>
